<svg width="56" height="64" viewBox="0 0 56 64" fill="none" xmlns="http://www.w3.org/2000/svg">
<g clip-path="url(#clip0_2006_389)">
<path fill-rule="evenodd" clip-rule="evenodd" d="M33.6525 22.7981C35.6616 21.8219 38.2182 20.3848 40.7778 18.416C41.3175 19.5081 41.3766 20.461 41.0985 21.2305C40.9015 21.7728 40.5302 22.2445 40.0419 22.6197C39.5132 23.0253 38.8529 23.3205 38.123 23.4801C36.7379 23.7841 35.1209 23.6066 33.6525 22.7981ZM34.0008 32.8004L36.6604 34.2974C31.2299 37.2631 29.7536 42.7701 27.9999 48.134C26.2464 42.7701 24.7699 37.2631 19.3396 34.2974L21.9993 32.8004C22.2565 32.7057 22.4764 32.534 22.6275 32.31C22.7785 32.086 22.8529 31.8212 22.84 31.5535C22.5963 26.5301 23.9883 24.3087 25.8659 22.9139C26.5394 22.4143 27.2746 22.1634 27.9999 22.1634C28.7252 22.1634 29.4604 22.4143 30.1341 22.9139C32.0117 24.3087 33.4037 26.5301 33.1601 31.5535C33.1472 31.8212 33.2215 32.086 33.3726 32.31C33.5236 32.534 33.7435 32.7057 34.0008 32.8004ZM27.9999 0C31.0742 0.0804267 34.1562 0.661973 36.831 1.79328C38.6832 2.57771 40.4115 3.61387 41.9765 4.85291C42.6832 5.41227 43.2652 5.95264 43.9062 6.57472C45.6352 6.63296 48.1619 4.76139 49.335 3.01013C47.3162 9.4592 38.1037 17.075 31.7258 19.9891C31.7232 19.9881 31.7214 19.9866 31.7194 19.9853C30.5748 19.1337 29.2875 18.7078 27.9999 18.7078C26.7123 18.7078 25.4252 19.1337 24.2806 19.9853C24.2786 19.9863 24.2769 19.9883 24.2742 19.9891C17.8961 17.075 8.68387 9.4592 6.66504 3.01013C7.83789 4.76139 10.3647 6.63296 12.0936 6.57472C12.7349 5.95285 13.3168 5.41227 14.0233 4.85291C15.5883 3.61387 17.3166 2.57771 19.1688 1.79328C21.8438 0.661973 24.9258 0.0804267 27.9999 0ZM22.3474 22.7981C20.3384 21.8219 17.7816 20.3848 15.2222 18.416C14.6826 19.5081 14.6234 20.461 14.9013 21.2305C15.0985 21.7728 15.4699 22.2445 15.9579 22.6197C16.4868 23.0253 17.1471 23.3205 17.8771 23.4801C19.2621 23.7841 20.8789 23.6066 22.3474 22.7981Z" fill="white"/>
<path fill-rule="evenodd" clip-rule="evenodd" d="M43.5812 16.0034C44.9903 14.6178 46.2319 13.0841 47.2302 11.7156L47.7373 12.6455C49.3697 15.8278 50.2179 18.9973 50.2179 22.5642L50.2144 28.2244L50.245 31.1586C50.3632 38.362 51.9628 45.6501 55.5862 52.3197L48.0051 46.363L42.6409 54.845L37.0054 49.6757L28 63.9155L18.9947 49.6759L13.3594 54.8452L7.99521 46.3633L0.413818 52.32C4.03724 45.6503 5.63681 38.3622 5.75525 31.1588L5.7859 28.2246L5.7824 22.5644C5.7824 18.9973 6.63035 15.8278 8.26319 12.6457L8.77003 11.7158C9.76839 13.0843 11.0098 14.6178 12.4191 16.0036L11.979 16.8942C11.1241 18.6242 10.841 20.5585 11.507 22.398C11.9363 23.5829 12.7199 24.599 13.7301 25.3747C14.7109 26.1279 15.8717 26.6357 17.0871 26.9023C17.8787 27.076 18.6853 27.1475 19.4866 27.1231C19.2996 28.1559 19.218 29.227 19.2127 30.3185L12.0613 34.3432L17.5799 37.3574C18.021 37.5984 18.4409 37.8744 18.8353 38.1828C23.385 42.1631 26.1204 53.9385 28.0002 59.6902C29.8803 53.9385 32.6155 42.1631 37.1654 38.1828C37.5598 37.8744 37.9797 37.5983 38.4208 37.3574L43.9394 34.3432L36.7878 30.3185C36.7825 29.227 36.7008 28.1559 36.5139 27.1231C37.3152 27.1475 38.1218 27.076 38.9134 26.9023C40.1288 26.6357 41.2898 26.1279 42.2704 25.3747C43.2804 24.599 44.0642 23.5829 44.4933 22.398C45.1595 20.5585 44.8762 18.6244 44.0215 16.8942L43.5814 16.0036L43.5812 16.0034Z" fill="white"/>
</g>
<defs>
<clipPath id="clip0_2006_389">
<rect width="55.1724" height="64" fill="white" transform="translate(0.413818)"/>
</clipPath>
</defs>
</svg>
