<svg width="56" height="64" viewBox="0 0 56 64" fill="none" xmlns="http://www.w3.org/2000/svg">
<g clip-path="url(#clip0_2006_381)">
<path d="M41.4347 7.80828L32.0004 13.2927L27.9769 10.9688L23.5372 13.5715L14.0566 8.08715L27.9769 0L41.4347 7.80828Z" fill="white"/>
<path d="M55.5862 15.9884V21.4263L46.1056 26.9107L34.9602 33.4176L25.7108 38.7626L14.5191 45.223L19.375 48.0581L9.94066 53.5425L0.413818 48.0117V42.5737L9.84816 37.0894L21.0399 30.6289L30.243 25.284L41.4347 18.7771L36.625 15.9884L46.0594 10.504L55.5862 15.9884Z" fill="white"/>
<path d="M41.8973 55.9594L27.977 64L14.5654 56.1918L23.9998 50.7074L27.977 53.0313L32.4629 50.475L41.8973 55.9594Z" fill="white"/>
<path d="M26.4508 20.6361L17.4326 25.8881L9.84816 21.4727V31.7443L0.413818 37.2287V15.9883L9.43194 10.7363L18.9125 16.2207L26.4508 20.6361Z" fill="white"/>
<path d="M55.5863 26.7712V48.0116L46.5219 53.2636L37.0875 47.7792L29.5493 43.4103L38.5674 38.1583L46.1057 42.5272V32.2556L55.5863 26.7712Z" fill="white"/>
</g>
<defs>
<clipPath id="clip0_2006_381">
<rect width="55.1724" height="64" fill="white" transform="translate(0.413818)"/>
</clipPath>
</defs>
</svg>
